<svg width="54" height="54" viewBox="0 0 54 54" fill="none" xmlns="http://www.w3.org/2000/svg">
<circle cx="27" cy="27" r="27" fill="#F1F1F1"/>
<path fill-rule="evenodd" clip-rule="evenodd" d="M28.8287 34C28.5367 34 28.2467 33.873 28.0487 33.627L23.2207 27.627C22.9227 27.256 22.9267 26.726 23.2317 26.36L28.2317 20.36C28.5847 19.936 29.2157 19.879 29.6407 20.232C30.0647 20.585 30.1217 21.216 29.7677 21.64L25.2927 27.011L29.6077 32.373C29.9537 32.803 29.8857 33.433 29.4547 33.779C29.2707 33.928 29.0487 34 28.8287 34Z" fill="#151515"/>
<mask id="mask0_12227_185" style="mask-type:luminance" maskUnits="userSpaceOnUse" x="23" y="20" width="7" height="14">
<path fill-rule="evenodd" clip-rule="evenodd" d="M28.8287 34C28.5367 34 28.2467 33.873 28.0487 33.627L23.2207 27.627C22.9227 27.256 22.9267 26.726 23.2317 26.36L28.2317 20.36C28.5847 19.936 29.2157 19.879 29.6407 20.232C30.0647 20.585 30.1217 21.216 29.7677 21.64L25.2927 27.011L29.6077 32.373C29.9537 32.803 29.8857 33.433 29.4547 33.779C29.2707 33.928 29.0487 34 28.8287 34Z" fill="white"/>
</mask>
<g mask="url(#mask0_12227_185)">
<rect x="15" y="15" width="24" height="24" fill="#151515"/>
</g>
</svg>
