<svg width="54" height="54" viewBox="0 0 54 54" fill="none" xmlns="http://www.w3.org/2000/svg">
<circle cx="27" cy="27" r="27" fill="#FF4C0D"/>
<path fill-rule="evenodd" clip-rule="evenodd" d="M25.1713 34C25.4633 34 25.7533 33.873 25.9513 33.627L30.7793 27.627C31.0773 27.256 31.0733 26.726 30.7683 26.36L25.7683 20.36C25.4153 19.936 24.7843 19.879 24.3593 20.232C23.9353 20.585 23.8783 21.216 24.2323 21.64L28.7073 27.011L24.3923 32.373C24.0463 32.803 24.1143 33.433 24.5453 33.779C24.7293 33.928 24.9513 34 25.1713 34Z" fill="white"/>
<mask id="mask0_12227_186" style="mask-type:luminance" maskUnits="userSpaceOnUse" x="24" y="20" width="7" height="14">
<path fill-rule="evenodd" clip-rule="evenodd" d="M25.1713 34C25.4633 34 25.7533 33.873 25.9513 33.627L30.7793 27.627C31.0773 27.256 31.0733 26.726 30.7683 26.36L25.7683 20.36C25.4153 19.936 24.7843 19.879 24.3593 20.232C23.9353 20.585 23.8783 21.216 24.2323 21.64L28.7073 27.011L24.3923 32.373C24.0463 32.803 24.1143 33.433 24.5453 33.779C24.7293 33.928 24.9513 34 25.1713 34Z" fill="white"/>
</mask>
<g mask="url(#mask0_12227_186)">
<rect width="24" height="24" transform="matrix(-1 0 0 1 39 15)" fill="white"/>
</g>
</svg>
